<svg id="visual" viewBox="0 0 900 600" width="900" height="600" xmlns="http://www.w3.org/2000/svg" xmlns:xlink="http://www.w3.org/1999/xlink" version="1.1"><path d="M0 150L21.5 151.7C43 153.3 86 156.7 128.8 157.5C171.7 158.3 214.3 156.7 257.2 158.8C300 161 343 167 385.8 173C428.7 179 471.3 185 514.2 186.2C557 187.3 600 183.7 642.8 176.7C685.7 169.7 728.3 159.3 771.2 150C814 140.7 857 132.3 878.5 128.2L900 124L900 0L878.5 0C857 0 814 0 771.2 0C728.3 0 685.7 0 642.8 0C600 0 557 0 514.2 0C471.3 0 428.7 0 385.8 0C343 0 300 0 257.2 0C214.3 0 171.7 0 128.8 0C86 0 43 0 21.5 0L0 0Z" fill="#32a1fc"></path><path d="M0 115L21.5 121.8C43 128.7 86 142.3 128.8 148.2C171.7 154 214.3 152 257.2 142.3C300 132.7 343 115.3 385.8 112.8C428.7 110.3 471.3 122.7 514.2 125.7C557 128.7 600 122.3 642.8 125.7C685.7 129 728.3 142 771.2 147.7C814 153.3 857 151.7 878.5 150.8L900 150L900 0L878.5 0C857 0 814 0 771.2 0C728.3 0 685.7 0 642.8 0C600 0 557 0 514.2 0C471.3 0 428.7 0 385.8 0C343 0 300 0 257.2 0C214.3 0 171.7 0 128.8 0C86 0 43 0 21.5 0L0 0Z" fill="#1494fe"></path><path d="M0 120L21.5 112C43 104 86 88 128.8 84C171.7 80 214.3 88 257.2 89C300 90 343 84 385.8 84.3C428.7 84.7 471.3 91.3 514.2 90C557 88.7 600 79.3 642.8 82.8C685.7 86.3 728.3 102.7 771.2 109.8C814 117 857 115 878.5 114L900 113L900 0L878.5 0C857 0 814 0 771.2 0C728.3 0 685.7 0 642.8 0C600 0 557 0 514.2 0C471.3 0 428.7 0 385.8 0C343 0 300 0 257.2 0C214.3 0 171.7 0 128.8 0C86 0 43 0 21.5 0L0 0Z" fill="#0086ff"></path><path d="M0 90L21.5 86.2C43 82.3 86 74.7 128.8 72C171.7 69.3 214.3 71.7 257.2 71.3C300 71 343 68 385.8 64.3C428.7 60.7 471.3 56.3 514.2 56.2C557 56 600 60 642.8 60C685.7 60 728.3 56 771.2 57.3C814 58.7 857 65.3 878.5 68.7L900 72L900 0L878.5 0C857 0 814 0 771.2 0C728.3 0 685.7 0 642.8 0C600 0 557 0 514.2 0C471.3 0 428.7 0 385.8 0C343 0 300 0 257.2 0C214.3 0 171.7 0 128.8 0C86 0 43 0 21.5 0L0 0Z" fill="#0077ff"></path><path d="M0 57L21.5 51.5C43 46 86 35 128.8 31C171.7 27 214.3 30 257.2 33.7C300 37.3 343 41.7 385.8 43.5C428.7 45.3 471.3 44.7 514.2 46.3C557 48 600 52 642.8 51C685.7 50 728.3 44 771.2 44.2C814 44.3 857 50.7 878.5 53.8L900 57L900 0L878.5 0C857 0 814 0 771.2 0C728.3 0 685.7 0 642.8 0C600 0 557 0 514.2 0C471.3 0 428.7 0 385.8 0C343 0 300 0 257.2 0C214.3 0 171.7 0 128.8 0C86 0 43 0 21.5 0L0 0Z" fill="#0066ff"></path></svg>